<?xml version="1.0" encoding="utf-8"?>
<!-- Generator: Adobe Illustrator 21.1.0, SVG Export Plug-In . SVG Version: 6.00 Build 0)  -->
<svg version="1.1" id="Recover" xmlns="http://www.w3.org/2000/svg" xmlns:xlink="http://www.w3.org/1999/xlink" x="0px" y="0px"
	 width="165px" height="31px" viewBox="0 0 165 31" style="enable-background:new 0 0 165 31;" xml:space="preserve">
<style type="text/css">
	.st0{fill:#FCD846;}
	.st1{enable-background:new    ;}
	.st2{fill:#FFFFFF;}
</style>
<path class="st0" d="M14.6,0h12.3c6,0,10.2,4.9,9.3,10.9l0,0c-0.7,4.6-4.1,8.5-8.3,10.1l8.5,10h-5.6l-9.8-11.4l5.9-2.3
	c2.7-1,4.8-3.6,5.3-6.4C32.7,7.1,30,4,26.3,4H18l-1.5,10.4l-3.5-4C13.6,6.9,14.1,3.5,14.6,0z"/>
<path class="st0" d="M10.3,0h0.2l-0.2,1.2V0z M10.3,31v-1.2l2-13.5c4.2,4.9,8.5,9.8,12.7,14.7h-5.8l-4.3-5l-0.7,5H10.3z M6.4,0h3.8
	v1.2L5.9,31h-4L6.4,0L6.4,0z M10.3,29.8L10.1,31h0.2V29.8z"/>
<g class="st1">
	<path class="st2" d="M63.4,18.6h-15c0.7,3.1,3,5,6.2,5c2.2,0,4.1-0.8,5.6-2.3l2.3,2.4c-1.9,2.1-4.8,3.4-8.2,3.4
		C48.1,27,44,22.9,44,17c0-6,4.1-10.1,10-10.1C61.1,6.8,63.9,11.4,63.4,18.6z M59.6,15.4c-0.1-3.2-2.3-5.2-5.5-5.2
		c-3.1,0-5.4,2-5.8,5.2H59.6z"/>
</g>
<g class="st1">
	<path class="st2" d="M76.2,10.6c-3.4,0-5.9,2.6-5.9,6.3c0,3.8,2.5,6.3,5.9,6.3c2.5,0,4.5-0.8,5.9-2.4l2.4,2.4
		C82.6,25.6,79.7,27,76,27c-5.9,0-10-4.1-10-10c0-6,4.1-10.1,10-10.1c3.6,0,6.4,1.2,8.2,3.2l-2.4,2.8C80.5,11.4,78.6,10.6,76.2,10.6
		z"/>
</g>
<g class="st1">
	<path class="st2" d="M107,16.9c0,6-4.2,10.1-10.3,10.1c-6.2,0-10.4-4.1-10.4-10.1c0-6,4.2-10,10.4-10C102.8,6.8,107,10.9,107,16.9z
		 M90.6,16.9c0,3.8,2.5,6.5,6.1,6.5c3.5,0,6-2.6,6-6.5c0-3.8-2.5-6.5-6-6.5C93.1,10.5,90.6,13.1,90.6,16.9z"/>
	<path class="st2" d="M111.3,7l5.5,15.6L122.3,7h4.3L119,26.8h-4.4L106.8,7C106.8,7,111.3,7,111.3,7z"/>
</g>
<g class="st1">
	<path class="st2" d="M147.1,18.6h-15c0.7,3.1,3,5,6.2,5c2.2,0,4.1-0.8,5.6-2.3l2.3,2.4c-1.9,2.1-4.8,3.4-8.2,3.4
		c-6.1,0-10.2-4.1-10.2-10c0-6,4.1-10.1,10-10.1C144.7,6.8,147.6,11.4,147.1,18.6z M143.3,15.4c-0.1-3.2-2.3-5.2-5.5-5.2
		c-3.1,0-5.4,2-5.8,5.2H143.3z"/>
	<path class="st2" d="M162.7,6.8v4.1c-4-0.2-6.5,2.1-6.9,5.5v10.4h-4.3V7h4.3v4C157.2,8.3,159.6,6.8,162.7,6.8z"/>
</g>
</svg>
