<?xml version="1.0" encoding="utf-8"?>
<svg version="1.1" id="Recover" xmlns="http://www.w3.org/2000/svg" xmlns:xlink="http://www.w3.org/1999/xlink" x="0px" y="0px"
	 width="39px" height="31px" viewBox="0 0 39 31" style="enable-background:new 0 0 39 31;" xml:space="preserve">
<style type="text/css">
	.st0{fill:#FCD846;}
</style>
<path class="st0" d="M14.6,0h12.3c6,0,10.2,4.9,9.3,10.9l0,0c-0.7,4.6-4.1,8.5-8.3,10.1l8.5,10h-5.6l-9.8-11.4l5.9-2.3
	c2.7-1,4.8-3.6,5.3-6.4C32.7,7.1,30,4,26.3,4H18l-1.5,10.4l-3.5-4C13.6,6.9,14.1,3.5,14.6,0z"/>
<path class="st0" d="M10.3,0h0.2l-0.2,1.2V0z M10.3,31v-1.2l2-13.5c4.2,4.9,8.5,9.8,12.7,14.7h-5.8l-4.3-5l-0.7,5H10.3z M6.4,0h3.8
	v1.2L5.9,31h-4L6.4,0L6.4,0z M10.3,29.8L10.1,31h0.2V29.8z"/>
</svg>
